HIERARCHY
ROOT Hip
{
  OFFSET 0.0 0.0 0.0
  CHANNELS 6 Xposition Yposition Zposition Xrotation Yrotation Zrotation
  JOINT LowerSpine
  {
    OFFSET 0.0 0.061367 -0.03653
    CHANNELS 3 Xrotation Yrotation Zrotation
    JOINT MiddleSpine
    {
      OFFSET 0.0 0.056002 0.002633
      CHANNELS 3 Xrotation Yrotation Zrotation
      JOINT Chest
      {
        OFFSET 0.0 0.069296 -0.013882
        CHANNELS 3 Xrotation Yrotation Zrotation
        JOINT Neck
        {
          OFFSET 0.0 0.156156 -0.002923
          CHANNELS 3 Xrotation Yrotation Zrotation
          JOINT Head
          {
            OFFSET 0.0 0.088183 0.023986
            CHANNELS 3 Xrotation Yrotation Zrotation
            End Site
            {
              OFFSET 1e-06 0.123215 0.003678
            }
          }
        }
        JOINT LClavicle
        {
          OFFSET 0.014189 0.150698 0.046467
          CHANNELS 3 Xrotation Yrotation Zrotation
          JOINT LShoulder
          {
            OFFSET 0.082893 0.021616 -0.034976
            CHANNELS 3 Xrotation Yrotation Zrotation
            JOINT LForearm
            {
              OFFSET 0.195645 -0.000695 -0.001695
              CHANNELS 3 Xrotation Yrotation Zrotation
              JOINT LHand
              {
                OFFSET 0.163209 0.000474 -0.000977
                CHANNELS 3 Xrotation Yrotation Zrotation
                End Site
                {
                  OFFSET 0.0 0.006864 0.0
                }
              }
            }
          }
        }
        JOINT RClavicle
        {
          OFFSET -0.014189 0.150698 0.046467
          CHANNELS 3 Xrotation Yrotation Zrotation
          JOINT RShoulder
          {
            OFFSET -0.082908 0.021619 -0.034982
            CHANNELS 3 Xrotation Yrotation Zrotation
            JOINT RForearm
            {
              OFFSET -0.195645 -0.000695 -0.001695
              CHANNELS 3 Xrotation Yrotation Zrotation
              JOINT RHand
              {
                OFFSET -0.163209 0.000474 -0.000977
                CHANNELS 3 Xrotation Yrotation Zrotation
                End Site
                {
                  OFFSET 0.0 0.006864 0.0
                }
              }
            }
          }
        }
      }
    }
  }
  JOINT RThigh
  {
    OFFSET -0.072558 0.02774 -0.005953
    CHANNELS 3 Xrotation Yrotation Zrotation
    JOINT RShin
    {
      OFFSET -0.005253 -0.285537 0.0
      CHANNELS 3 Xrotation Yrotation Zrotation
      JOINT RFoot
      {
        OFFSET 0.0 -0.28038 0.0
        CHANNELS 3 Xrotation Yrotation Zrotation
        JOINT RToe
        {
          OFFSET 0.0 -0.030816 0.064441
          CHANNELS 3 Xrotation Yrotation Zrotation
          End Site
          {
            OFFSET 0.0 0.0 0.043231
          }
        }
      }
    }
  }
  JOINT LThigh
  {
    OFFSET 0.072557 0.027741 -0.005953
    CHANNELS 3 Xrotation Yrotation Zrotation
    JOINT LShin
    {
      OFFSET 0.005253 -0.285539 0.0
      CHANNELS 3 Xrotation Yrotation Zrotation
      JOINT LFoot
      {
        OFFSET 0.0 -0.28038 0.0
        CHANNELS 3 Xrotation Yrotation Zrotation
        JOINT LToe
        {
          OFFSET 0.0 -0.030816 0.064441
          CHANNELS 3 Xrotation Yrotation Zrotation
          End Site
          {
            OFFSET 0.0 0.0 0.043231
          }
        }
      }
    }
  }
}
MOTION
Frames: 8
Frame Time: 0.03333333333333333
-0.005169 0.540843 1.620449 54.426582 -72.306221 63.099773 -11.080937 13.135144 -6.829692 0.462882 -6.269496 -15.365904 -11.490472 -9.960024 13.001184 -0.426111 -16.423054 -6.867985 -8.968262 17.797312 3.314724 -3.344825 18.400509 -12.092287 24.718393 -18.808176 -50.229088 0.844667 -23.880199 -14.534616 -11.620173 -12.099063 9.447151 13.897252 -1.584494 28.111908 12.178779 24.973831 42.144196 -7.263422 26.532476 16.316278 17.098835 5.30313 7.464046 -7.184848 -4.02919 -4.645085 17.659893 4.297229 11.147634 -7.052653 -1.673864 17.780827 0.140902 -15.548446 -11.231119 -34.407295 -1.631712 -13.363748 15.489411 2.30486 13.869313 8.440771 6.553695 -15.336082 -12.821981 14.23801 7.459404 
-0.014892 0.539967 1.625921 61.905182 -73.457382 70.604042 -11.239007 13.025685 -6.793661 0.498694 -6.263617 -15.548061 -11.018348 -10.083127 12.802381 0.093138 -16.554558 -6.751426 -9.083591 17.894503 3.324192 -3.328562 18.698195 -12.366546 23.762058 -19.25573 -49.40448 0.46822 -23.825005 -14.697161 -11.766126 -12.151173 9.463316 14.289762 -2.153997 28.205627 11.829914 26.072586 42.511951 -6.659074 25.225262 16.253223 17.240597 5.349391 7.481388 -8.065084 -4.31508 -6.052573 19.439541 3.902117 11.768355 -6.658714 -2.655949 17.642889 -0.209881 -15.653657 -11.361185 -33.343853 -1.835586 -13.643632 14.777297 1.839478 14.295784 8.044882 6.160927 -15.653631 -12.929487 14.293134 7.52717 
-0.024248 0.539585 1.632995 68.452583 -73.962685 77.398087 -11.558403 12.964028 -6.794782 0.682825 -6.272209 -15.814555 -10.674207 -10.421103 12.512668 0.254425 -16.766649 -6.716763 -9.209033 17.993694 3.273637 -3.332673 18.884937 -12.967387 23.116653 -19.991663 -48.164867 0.087621 -23.684385 -14.853199 -11.984161 -12.200315 9.421394 14.745463 -2.209747 28.049992 11.389614 26.779503 43.171555 -6.686547 23.718 16.186884 17.400072 5.400214 7.446209 -9.585383 -4.511968 -7.708298 21.032465 3.712376 12.134901 -6.495136 -3.470181 17.43918 -0.455174 -15.772614 -11.432783 -33.058075 -2.09273 -14.090011 14.849036 1.267648 14.574033 7.239406 5.970433 -15.958295 -13.028004 14.353525 7.555442 
-0.034454 0.539939 1.640368 75.764763 -74.714943 85.041405 -11.649291 12.903363 -6.704509 0.844638 -6.344392 -15.987704 -10.040822 -10.729939 12.114316 0.382692 -16.832289 -6.725985 -9.307193 17.965006 3.149945 -3.481742 18.813931 -13.31091 22.456234 -20.45583 -47.308777 -0.406969 -23.215141 -14.539832 -12.117185 -12.156654 9.309228 15.004415 -2.009349 27.784357 10.584573 27.414001 44.070492 -7.069778 22.070812 15.954819 17.410078 5.400288 7.361213 -11.546628 -4.30572 -8.815562 22.731203 3.477733 12.206553 -6.256505 -4.397029 16.90906 -0.519135 -15.787839 -11.429385 -32.083607 -2.372276 -14.650043 15.152947 0.453227 14.768542 5.830214 5.767339 -16.029867 -13.058252 14.292516 7.514603 
-0.047583 0.540721 1.648795 83.709778 -75.326523 92.965935 -11.581367 12.833754 -6.556055 1.096038 -6.404566 -15.985426 -9.302636 -10.964111 11.750508 0.39848 -16.761721 -6.665046 -9.325274 17.816345 3.020806 -3.706213 18.522926 -13.672948 21.869858 -21.100277 -46.709618 -0.649832 -22.710659 -14.164667 -12.175088 -12.043922 9.145684 15.095143 -1.511319 27.308748 9.733324 27.80615 45.082466 -7.515993 20.51025 15.552334 17.298235 5.372169 7.245368 -13.008916 -4.106889 -9.521146 23.930723 3.216658 12.136722 -6.224115 -4.977391 16.307163 -0.401877 -15.688614 -11.344289 -30.858427 -2.570016 -14.813049 15.682569 -0.25927 14.869814 4.425978 5.702191 -15.901825 -12.96526 14.162433 7.401585 
-0.061707 0.541601 1.65665 92.325157 -75.943642 101.552246 -11.510072 12.81096 -6.425418 1.452269 -6.533677 -15.990439 -8.635619 -11.261549 11.499485 0.241104 -16.749504 -6.594159 -9.317849 17.703484 2.939662 -4.003079 18.183031 -14.036003 21.641739 -22.070406 -46.03466 -0.578434 -22.380482 -13.867081 -12.193013 -11.982066 9.03479 15.141899 -0.891201 26.824203 9.20029 28.147457 45.820812 -7.881368 19.116163 15.167252 17.168161 5.396037 7.196773 -14.14123 -4.131808 -10.010789 24.285044 3.100512 11.96911 -6.259851 -5.343756 15.781862 -0.164829 -15.630713 -11.224956 -29.570755 -2.676022 -14.883973 16.569818 -0.821609 15.056661 3.143905 5.706892 -15.817307 -12.850158 14.100824 7.285947 
-0.078764 0.542707 1.662801 101.694527 -75.99411 110.895584 -11.669374 12.677428 -6.26509 1.869403 -6.594385 -15.913393 -8.027194 -11.61302 11.412066 -0.130805 -16.691309 -6.620671 -9.165056 17.562815 2.920366 -4.20189 17.83777 -14.575802 21.739347 -23.380657 -45.40424 -0.129867 -22.066732 -13.564719 -12.101626 -11.928978 8.933895 15.058413 -0.368958 26.329735 9.385314 28.746439 45.973801 -7.512962 18.04579 14.775885 16.988091 5.418465 7.173438 -15.217911 -4.103824 -10.194344 23.974474 3.169959 11.518095 -6.514491 -5.43214 15.233658 0.220583 -15.547052 -11.053495 -28.211893 -2.71005 -14.692563 17.891008 -1.207701 15.133479 1.884138 6.113163 -15.523239 -12.666772 14.039135 7.171421 
-0.096927 0.543432 1.665701 112.976303 -75.525421 122.336609 -11.789938 12.648919 -6.132101 2.409303 -6.649595 -15.816232 -7.509977 -12.021084 11.413283 -0.747241 -16.715303 -6.665016 -8.936813 17.474401 2.901102 -4.571373 17.437206 -14.991695 22.244171 -24.908653 -44.488953 0.694496 -21.751114 -13.312406 -11.974814 -11.891553 8.883955 14.983032 0.302165 25.744795 10.021798 29.618113 45.709713 -6.898312 17.103754 14.431442 16.83742 5.437259 7.200259 -16.178583 -4.127738 -10.315613 23.284718 3.235477 11.062119 -6.890333 -5.307902 14.821058 0.721902 -15.468904 -10.913994 -26.839098 -2.68314 -14.366385 19.621979 -1.365936 15.12273 0.632885 6.513994 -15.27236 -12.487462 14.024531 7.080967 
